<?xml version="1.0" standalone="no"?><!DOCTYPE svg PUBLIC "-//W3C//DTD SVG 1.1//EN" "http://www.w3.org/Graphics/SVG/1.1/DTD/svg11.dtd"><svg class="icon" width="32px" height="32.00px" viewBox="0 0 1024 1024" version="1.1" xmlns="http://www.w3.org/2000/svg"><path fill="#1afa29" d="M131.32 158.17h-1.03c-12.16 0-22.35 8.67-24.71 20.15l-0.51 5.07V685.9c0 12.16 8.67 22.36 20.15 24.71l5.07 0.51h772.93c12.16 0 22.35-8.67 24.71-20.15l0.51-5.08V182.88c0-12.16-8.67-22.36-20.15-24.37l-5.08-0.34-771.9-0.51m12.85-87.53l792.94 0.51c45.55 0 82.89 34.66 86.69 79.09l0.31 8.44v552.96c0 38.8-22.14 82.51-71.78 86.74l0.3 0.27H87.11c-45.06 0-82.37-34.66-86.61-78.66l-0.4-8.35V157.65c0-30.89 44.66-87.01 97.91-87.01m599.71 787.43c26.41 0 48.02 21.61 48.02 48.03 0 26.41-21.61 48.03-48.02 48.03H369.54c-26.41 0-48.02-21.61-48.02-48.03 0-26.41 21.61-48.03 48.02-48.03h328.18z" /></svg>