<?xml version="1.0" standalone="no"?><!DOCTYPE svg PUBLIC "-//W3C//DTD SVG 1.1//EN" "http://www.w3.org/Graphics/SVG/1.1/DTD/svg11.dtd"><svg class="icon" width="32px" height="32.00px" viewBox="0 0 1024 1024" version="1.1" xmlns="http://www.w3.org/2000/svg"><path fill="#FF0000" d="M50.6 115.71l80.72 87.52h-1.03c-13.9 0-25.23 11.33-25.23 25.23v502.47c0 13.9 11.33 25.23 25.23 25.23h470.12l80.04 87.01H87.11C39.23 843.17 0.1 804.04 0.1 756.16V202.71c0-30.89 21.42-87 50.5-87z m886.48 0c48.39 0 87.52 39.13 87.01 87.52v552.92c0 41.7-25.58 89.06-83.37 87.01l-79.21-87.01h41.7c13.9 0 25.23-11.33 25.23-25.23V227.94c0-13.9-11.33-25.23-25.23-24.71H386.87l-81.33-87.52h631.54zM183.81 39.69l685.51 797.74c19.42 20.26 19.42 52.34 0 71.75-19.42 19.42-51.49 19.42-71.75 0L112.06 111.44c-19.42-19.42-19.42-51.49 0-71.75 19.41-19.42 51.49-19.42 71.75 0z m513.9 863.39c26.41 0 48.02 21.61 48.02 48.02 0 26.41-21.61 48.02-48.02 48.02H369.53c-26.41 0-48.02-21.61-48.02-48.02 0-26.41 21.61-48.02 48.02-48.02h328.18z" /></svg>